<mxfile host="app.diagrams.net" modified="2023-07-04T07:23:20.469Z" agent="Mozilla/5.0 (Windows NT 10.0; Win64; x64) AppleWebKit/537.36 (KHTML, like Gecko) Chrome/114.0.0.0 Safari/537.36" version="21.5.2" etag="XIhvBr-_L-gi91VrMGu_" type="github">
  <diagram name="Page-1" id="cL7MismYSoBYfQF70sJb">
    <mxGraphModel>
      <root>
        <mxCell id="0" />
        <mxCell id="1" parent="0" />
      </root>
    </mxGraphModel>
  </diagram>
</mxfile>
